<svg width="191" height="151" viewBox="0 0 191 151" fill="none" xmlns="http://www.w3.org/2000/svg">
<path d="M190.275 92.2657L189.67 87.6322L187.9 71.1157L187.387 67.1108V64.745L187.477 58.4329L187.387 55.9346L187.108 52.1432L185.809 45.2088L183.973 41.8181L179.39 43.9885L174.577 46.1301L170.295 47.064H169.229L166.207 47.2954L165.733 47.3423H165.722L161.223 47.0649L159.647 47.3792L158.523 48.359L156.74 48.4995L155.565 49.2199L154.333 50.1205L151.982 50.542L148.829 51.5119L145.464 52.879L147.682 55.7969L152.542 61.3804L152.776 62.3143L157.337 68.6184L159.885 76.1436L162.826 77.471L162.839 77.4809L165.379 79.4487L165.393 79.4766L169.965 88.5391V88.5562L170.901 92.7556L170.73 94.0344L189.828 96.5957L190.273 93.495L190.275 92.2657Z" fill="#CECECE" stroke="white" stroke-width="0.5" stroke-linejoin="round"/>
<path d="M106.84 142.498L105.525 140.9L104.676 139.152L104.206 136.998L104.579 132.074L104.44 131.051L104.394 128.093L104.115 126.51L103.928 122.891V121.476L104.534 116.557L104.944 111.659L102.391 110.767L98.8046 109.385V109.375L85.2446 102.553L82.9176 105.473L82.0326 105.055L81.3564 105.897L75.9054 112.395L71.6692 117.636L58.3804 134.229L73.1879 139.222L90.3721 144.975L94.1354 146.225L93.4881 148.207L95.4245 148.635L105.549 149.518L106.757 150.099L107.833 144.114L106.84 142.498Z" fill="#CECECE"/>
<path d="M129.655 149.554L133.82 147.662L149.568 139.702L150.359 138.451L150.391 138.434L159.325 133.614L160.221 132.964L144.991 114.748L141.313 109.508L132.419 99.551L131.86 100.625L128.068 108.459L128.024 108.481L116.613 113.909L116.336 114.02L113.177 113.503L110.924 113.034L105.409 111.367L105.004 116.206L104.399 121.121V122.504L104.585 126.106L104.865 127.698L104.911 130.659L105.052 131.685V131.7L104.681 136.597L105.139 138.695L105.962 140.382L107.267 141.963L108.319 143.674L107.21 149.842L107.972 150.238L107.93 149.478L110.697 149.865L117.228 145.137L121.181 149.685L129.655 149.554Z" fill="#CECECE" stroke="white" stroke-width="0.5" stroke-linejoin="round"/>
<path d="M75.88 111.839L81.3303 105.342L82.1439 104.33L83.028 104.747L85.1822 102.046L79.035 98.8701L76.1115 96.6862L72.8399 98.1758L69.2492 94.6914L65.5238 96.0828L61.4558 92.1707L58.3822 89.1583L58.243 89.297L46.039 77.3697L45.587 76.9194L30.9766 93.6386L15.0662 118.306L16.4032 118.192L20.2479 117.291L22.8623 120.289L19.879 122.933L20.331 128.997L25.9223 128.952L28.9435 126.263L33.0594 121.173L34.8836 122.106L38.0079 123.824L48.4328 130.361L58.2864 133.758L71.6376 117.086L75.88 111.839Z" fill="#CECECE" stroke="white" stroke-width="0.5" stroke-linejoin="round"/>
<path d="M137.609 1.54935L137.971 10.5074L139.507 12.6111L137.947 14.1655L137.453 15.0661L135.408 22.3806L134.986 24.1952L133.864 27.6436L133.856 27.6571L131.505 31.5016L135.783 31.8619L135.957 32.2104L136.504 33.3919L137.58 34.2772L137.742 34.7068V34.732L137.788 42.5274L145.291 52.6571L148.743 51.2495L151.926 50.2714L154.223 49.8599L155.417 48.9908L156.656 48.2307L158.414 48.0929L159.525 47.1248L161.209 46.7889L165.729 47.0681L166.181 47.0231L169.222 46.7907H170.278L174.487 45.8694L179.271 43.7414L183.84 41.58L182.351 38.7441L176.846 37.0384L176.83 37.0276L173.129 34.596L171.656 32.504L170.622 29.7428L170.669 25.1327L170.204 21.3377L169.044 13.935L167.979 11.3521L166.362 7.7174L161.192 3.11906L153.979 1L137.609 1.54935Z" fill="#CECECE" stroke="white" stroke-width="0.5" stroke-linejoin="round"/>
<path d="M1.84614 110.126L5.89516 117.048L13.2221 118.379L14.7173 118.335L30.7497 93.4748L30.7561 93.4676L45.4732 76.625L50.8384 70.583L51.4712 70.0985L54.1498 68.6972L57.0182 67.8102L58.8018 67.6372V66.8853L58.7593 66.0387L57.001 65.0706L55.7797 59.0809L54.1145 54.831L51.3935 50.0985L38.0658 43.6216L34.165 41.6556L31.698 42.7471L31.3843 42.8516L29.4959 42.4914L1 98.3901L3.06745 98.4802L1.43121 103.131L1.84614 110.126Z" fill="#CECECE" stroke="white" stroke-width="0.5" stroke-linejoin="round"/>
<path d="M47.7767 22.9344L40.7842 28.0082L35.3747 34.4609L34.3242 41.4214L38.1924 43.3712L51.4306 49.804L55.0294 42.358L58.2558 41.4124L60.7183 40.5794L67.1837 38.4946L67.5652 38.3045L76.0068 36.8177L88.2885 33.1568L88.397 33.1136L86.3738 26.2422L86.3811 26.208L89.4085 12.1041L91.4652 2.99744L83.962 3.17755L80.5656 3.49726L78.5371 5.2885L78.5208 5.29661L68.1402 10.4443L65.5882 11.9699L57.9042 17.4409L51.5472 22.2842L47.7767 22.9344Z" fill="#232873" stroke="white" stroke-width="0.5" stroke-linejoin="round"/>
<path d="M89.6778 12.1627L86.6584 26.2306L88.6473 32.9966L88.9465 32.8471L90.8593 31.136L94.572 32.5589L99.9698 34.923L100.518 35.0589L102.529 35.5146L110.846 33.1551L113.982 32.5698V32.5806L125.069 31.3432H125.078L131.191 31.481L133.61 27.5274L134.721 24.1151L135.138 22.314L137.193 14.9617L137.723 14.0026L139.143 12.5878L137.696 10.6065L137.328 1.56201L124.659 1.92945L116.696 2.20772L107.752 2.44007L91.7516 2.99303L89.6778 12.1627Z" fill="#CECECE" stroke="white" stroke-width="0.5" stroke-linejoin="round"/>
<path fill-rule="evenodd" clip-rule="evenodd" d="M99.4945 54.1163L103.047 53.1968L106.458 54.0694L111.898 55.4122L119.117 57.688L116.048 65.9931L115.399 67.6754L110.636 65.9589L104.349 63.7317L98.2018 61.5505L95.7375 60.7166L91.8566 59.2901L89.4321 56.7018L99.4945 54.1163ZM133.602 93.1053L133.008 95.5224L131.694 96.6977L130.869 97.3552L128.675 94.7678L128.666 94.757L124.929 91.7788L124.92 91.7706L120.949 89.6768L120.939 89.6714L116.183 88.0918L114.147 87.2155L112.855 86.4797L110.996 85.2297L108.362 83.96L108.502 83.8203L109.871 81.7572L110.537 80.2919L111.031 78.9924L111.589 78.6682L112.493 76.3933L114.683 70.4846L116.415 71.0025L118.359 71.74L122.242 73.7213L124.563 76.2654L127.882 78.6403L130.744 79.9983L135.476 81.1907L136.109 85.4234L134.862 89.0149L133.602 93.1053ZM118.48 71.4866L122.415 73.4931L124.751 76.0525L128.035 78.3994L130.851 79.7332L135.43 80.885L135.136 79.0046L134.019 72.0927L133.646 69.3991L133.465 68.3976L130.595 61.203L129.714 60.414L121.866 58.6129L119.387 57.7753L116.313 66.0921L115.615 67.9023L114.78 70.2213L116.511 70.7392L118.48 71.4866ZM110.804 78.7993L110.278 80.1826L109.631 81.6118L108.294 83.6318L108.108 83.8173L106.22 82.5052L104.045 79.5549L104.034 79.5405L100.108 76.374L100.086 76.356L96.0105 75.2357L92.8564 74.1262L81.1125 68.4417L81.4678 67.7348L83.9303 63.014L84.2485 62.606L86.287 58.3157L86.118 57.516L86.825 57.3205L89.1211 56.7802L91.6966 59.5287L95.6434 60.9795L98.1096 61.8135L104.257 63.9938L110.543 66.2209L115.302 67.9365L114.465 70.2636L112.231 76.2921L111.364 78.4742L110.804 78.7993Z" fill="#CECECE"/>
<path d="M103.047 53.1968L103.109 52.9546C103.068 52.9441 103.025 52.9442 102.985 52.9548L103.047 53.1968ZM99.4945 54.1163L99.5567 54.3584L99.5571 54.3583L99.4945 54.1163ZM106.458 54.0694L106.396 54.3116L106.398 54.3121L106.458 54.0694ZM111.898 55.4122L111.973 55.1738C111.968 55.1722 111.963 55.1708 111.958 55.1695L111.898 55.4122ZM119.117 57.688L119.351 57.7746C119.375 57.7104 119.371 57.6394 119.341 57.5779C119.311 57.5165 119.257 57.4701 119.192 57.4495L119.117 57.688ZM116.048 65.9931L116.281 66.0831L116.282 66.0798L116.048 65.9931ZM115.399 67.6754L115.314 67.9106C115.442 67.9566 115.583 67.8921 115.632 67.7654L115.399 67.6754ZM110.636 65.9589L110.721 65.7237L110.72 65.7232L110.636 65.9589ZM104.349 63.7317L104.265 63.9673L104.265 63.9674L104.349 63.7317ZM98.2018 61.5505L98.2854 61.3149L98.2819 61.3137L98.2018 61.5505ZM95.7375 60.7166L95.6512 60.9514L95.6573 60.9534L95.7375 60.7166ZM91.8566 59.2901L91.6742 59.461C91.7008 59.4894 91.7338 59.5113 91.7704 59.5247L91.8566 59.2901ZM89.4321 56.7018L89.3699 56.4597C89.2843 56.4817 89.2167 56.5472 89.192 56.632C89.1674 56.7168 89.1892 56.8083 89.2496 56.8728L89.4321 56.7018ZM133.008 95.5224L133.174 95.7088C133.212 95.6752 133.238 95.6311 133.25 95.5822L133.008 95.5224ZM133.602 93.1053L133.363 93.0317C133.362 93.0363 133.361 93.0409 133.36 93.0455L133.602 93.1053ZM131.694 96.6977L131.85 96.8932C131.854 96.8903 131.857 96.8872 131.861 96.884L131.694 96.6977ZM130.869 97.3552L130.678 97.5168C130.765 97.6199 130.919 97.6349 131.024 97.5507L130.869 97.3552ZM128.675 94.7678L128.483 94.9285L128.484 94.9294L128.675 94.7678ZM128.666 94.757L128.857 94.5962C128.846 94.5835 128.834 94.5718 128.821 94.5615L128.666 94.757ZM124.929 91.7788L124.771 91.9722L124.774 91.9743L124.929 91.7788ZM124.92 91.7706L125.078 91.5772C125.065 91.5666 125.051 91.5573 125.036 91.5495L124.92 91.7706ZM120.949 89.6768L120.829 89.8961L120.832 89.898L120.949 89.6768ZM120.939 89.6714L121.059 89.4522C121.046 89.4449 121.032 89.4389 121.018 89.4341L120.939 89.6714ZM116.183 88.0918L116.084 88.3214C116.091 88.3243 116.098 88.3268 116.104 88.3291L116.183 88.0918ZM114.147 87.2155L114.024 87.4328C114.032 87.4374 114.04 87.4415 114.049 87.4452L114.147 87.2155ZM112.855 86.4797L112.715 86.6872C112.72 86.6907 112.726 86.6939 112.731 86.697L112.855 86.4797ZM110.996 85.2297L111.136 85.0223C111.126 85.0157 111.115 85.0097 111.105 85.0045L110.996 85.2297ZM108.362 83.96L108.185 83.7828C108.128 83.8401 108.102 83.9216 108.115 84.0016C108.129 84.0815 108.18 84.15 108.253 84.1852L108.362 83.96ZM108.502 83.8203L108.678 83.9975C108.69 83.9856 108.701 83.9726 108.71 83.9585L108.502 83.8203ZM109.871 81.7572L110.079 81.8954C110.086 81.8843 110.093 81.8727 110.098 81.8606L109.871 81.7572ZM110.537 80.2919L110.764 80.3954C110.767 80.3906 110.769 80.3857 110.77 80.3808L110.537 80.2919ZM111.031 78.9924L110.906 78.7762C110.856 78.805 110.818 78.8499 110.798 78.9035L111.031 78.9924ZM111.589 78.6682L111.715 78.8843C111.763 78.8562 111.801 78.8126 111.821 78.7605L111.589 78.6682ZM112.493 76.3933L112.725 76.4857L112.727 76.4802L112.493 76.3933ZM114.683 70.4846L114.754 70.2451C114.628 70.2073 114.494 70.2741 114.448 70.3978L114.683 70.4846ZM116.415 71.0025L116.503 70.7687C116.498 70.7666 116.492 70.7647 116.486 70.7629L116.415 71.0025ZM118.359 71.74L118.473 71.5173C118.465 71.5132 118.456 71.5095 118.448 71.5063L118.359 71.74ZM122.242 73.7213L122.426 73.5528C122.406 73.5306 122.382 73.5122 122.355 73.4986L122.242 73.7213ZM124.563 76.2654L124.379 76.4339C124.39 76.4469 124.404 76.4585 124.418 76.4687L124.563 76.2654ZM127.882 78.6403L127.736 78.8436C127.748 78.8522 127.761 78.8598 127.775 78.8661L127.882 78.6403ZM130.744 79.9983L130.637 80.2242C130.652 80.2312 130.667 80.2368 130.683 80.2408L130.744 79.9983ZM135.476 81.1907L135.724 81.1537C135.709 81.0539 135.635 80.9729 135.537 80.9482L135.476 81.1907ZM136.109 85.4234L136.345 85.5054C136.359 85.4672 136.362 85.4264 136.356 85.3864L136.109 85.4234ZM134.862 89.0149L134.625 88.9328L134.623 88.9413L134.862 89.0149ZM122.415 73.4931L122.6 73.3246C122.58 73.3024 122.556 73.284 122.529 73.2704L122.415 73.4931ZM118.48 71.4866L118.594 71.2639C118.586 71.2598 118.577 71.2561 118.569 71.2529L118.48 71.4866ZM124.751 76.0525L124.567 76.2211C124.578 76.234 124.592 76.2457 124.606 76.2559L124.751 76.0525ZM128.035 78.3994L127.889 78.6028C127.901 78.6115 127.914 78.619 127.928 78.6254L128.035 78.3994ZM130.851 79.7332L130.744 79.9592C130.759 79.9661 130.775 79.9717 130.79 79.9757L130.851 79.7332ZM135.43 80.885L135.369 81.1275C135.451 81.1479 135.537 81.1263 135.599 81.0697C135.661 81.0132 135.69 80.9293 135.677 80.8464L135.43 80.885ZM135.136 79.0046L135.383 78.966L135.383 78.9647L135.136 79.0046ZM134.019 72.0927L133.771 72.127L133.772 72.1326L134.019 72.0927ZM133.646 69.3991L133.894 69.3648L133.892 69.3547L133.646 69.3991ZM133.465 68.3976L133.711 68.3532C133.708 68.3367 133.703 68.3206 133.697 68.305L133.465 68.3976ZM130.595 61.203L130.827 61.1103C130.813 61.0745 130.79 61.0425 130.762 61.0168L130.595 61.203ZM129.714 60.414L129.881 60.2278C129.85 60.1996 129.811 60.1798 129.77 60.1704L129.714 60.414ZM121.866 58.6129L121.786 58.8497C121.794 58.8524 121.802 58.8547 121.81 58.8565L121.866 58.6129ZM119.387 57.7753L119.467 57.5385C119.339 57.4952 119.199 57.5617 119.152 57.6887L119.387 57.7753ZM116.313 66.0921L116.547 66.1822L116.548 66.1788L116.313 66.0921ZM115.615 67.9023L115.381 67.8123L115.379 67.8177L115.615 67.9023ZM114.78 70.2213L114.545 70.1367C114.522 70.2013 114.526 70.2726 114.557 70.334C114.588 70.3953 114.643 70.4411 114.709 70.4608L114.78 70.2213ZM116.511 70.7392L116.6 70.5054C116.594 70.5033 116.589 70.5014 116.583 70.4996L116.511 70.7392ZM110.278 80.1826L110.506 80.2857C110.508 80.281 110.51 80.2763 110.512 80.2715L110.278 80.1826ZM110.804 78.7993L110.679 78.5831C110.629 78.6119 110.591 78.6569 110.571 78.7104L110.804 78.7993ZM109.631 81.6118L109.84 81.7498C109.847 81.7387 109.853 81.727 109.859 81.7149L109.631 81.6118ZM108.294 83.6318L108.47 83.8089C108.482 83.7969 108.493 83.7838 108.502 83.7697L108.294 83.6318ZM108.108 83.8173L107.965 84.0225C108.064 84.0915 108.199 84.0797 108.284 83.9944L108.108 83.8173ZM106.22 82.5052L106.019 82.6535C106.035 82.6756 106.055 82.6948 106.078 82.7104L106.22 82.5052ZM104.045 79.5549L104.246 79.4065L104.245 79.4047L104.045 79.5549ZM104.034 79.5405L104.234 79.3903C104.222 79.3738 104.207 79.3589 104.191 79.3459L104.034 79.5405ZM100.108 76.374L100.265 76.1794L100.264 76.1785L100.108 76.374ZM100.086 76.356L100.241 76.1605C100.215 76.1394 100.185 76.1239 100.152 76.115L100.086 76.356ZM96.0105 75.2357L95.9275 75.4715C95.933 75.4734 95.9386 75.4752 95.9442 75.4767L96.0105 75.2357ZM92.8564 74.1262L92.7475 74.3512C92.756 74.3553 92.7646 74.3589 92.7735 74.362L92.8564 74.1262ZM81.1125 68.4417L80.8892 68.3295C80.8591 68.3893 80.8543 68.4587 80.8758 68.5221C80.8973 68.5855 80.9434 68.6376 81.0036 68.6668L81.1125 68.4417ZM81.4678 67.7348L81.2461 67.6192L81.2444 67.6225L81.4678 67.7348ZM83.9303 63.014L83.7332 62.8602C83.7239 62.8722 83.7157 62.8849 83.7087 62.8984L83.9303 63.014ZM84.2485 62.606L84.4456 62.7598C84.4569 62.7454 84.4665 62.7298 84.4743 62.7133L84.2485 62.606ZM86.287 58.3157L86.5129 58.423C86.5364 58.3735 86.543 58.3176 86.5316 58.264L86.287 58.3157ZM86.118 57.516L86.0514 57.275C85.924 57.3102 85.8461 57.4384 85.8734 57.5677L86.118 57.516ZM86.825 57.3205L86.7676 57.077L86.7583 57.0795L86.825 57.3205ZM89.1211 56.7802L89.3035 56.6092C89.2423 56.544 89.1509 56.5163 89.0638 56.5368L89.1211 56.7802ZM91.6966 59.5287L91.5142 59.6997C91.5408 59.7281 91.5737 59.7499 91.6103 59.7634L91.6966 59.5287ZM95.6434 60.9795L95.5571 61.2143L95.5633 61.2164L95.6434 60.9795ZM98.1096 61.8135L98.1931 61.5779L98.1896 61.5767L98.1096 61.8135ZM104.257 63.9938L104.173 64.2294L104.173 64.2295L104.257 63.9938ZM110.543 66.2209L110.628 65.9857L110.627 65.9853L110.543 66.2209ZM115.302 67.9365L115.537 68.0212C115.584 67.8913 115.516 67.7481 115.387 67.7013L115.302 67.9365ZM114.465 70.2636L114.699 70.3505L114.7 70.3482L114.465 70.2636ZM112.231 76.2921L112.463 76.3844L112.465 76.379L112.231 76.2921ZM111.364 78.4742L111.49 78.6903C111.538 78.6622 111.576 78.6185 111.596 78.5665L111.364 78.4742ZM102.985 52.9548L99.4318 53.8742L99.5571 54.3583L103.11 53.4388L102.985 52.9548ZM106.52 53.8272L103.109 52.9546L102.985 53.439L106.396 54.3116L106.52 53.8272ZM111.958 55.1695L106.518 53.8267L106.398 54.3121L111.838 55.6549L111.958 55.1695ZM119.192 57.4495L111.973 55.1738L111.823 55.6506L119.042 57.9264L119.192 57.4495ZM116.282 66.0798L119.351 57.7746L118.882 57.6013L115.813 65.9064L116.282 66.0798ZM115.632 67.7654L116.281 66.0831L115.814 65.9031L115.165 67.5854L115.632 67.7654ZM110.552 66.1941L115.314 67.9106L115.483 67.4402L110.721 65.7237L110.552 66.1941ZM104.265 63.9674L110.553 66.1945L110.72 65.7232L104.432 63.4961L104.265 63.9674ZM98.1182 61.7861L104.265 63.9673L104.433 63.4961L98.2854 61.3149L98.1182 61.7861ZM95.6573 60.9534L98.1216 61.7873L98.2819 61.3137L95.8176 60.4798L95.6573 60.9534ZM91.7704 59.5247L95.6512 60.9513L95.8237 60.482L91.9429 59.0554L91.7704 59.5247ZM89.2496 56.8728L91.6742 59.461L92.0391 59.1192L89.6145 56.5309L89.2496 56.8728ZM99.4323 53.8741L89.3699 56.4597L89.4943 56.944L99.5567 54.3584L99.4323 53.8741ZM133.25 95.5822L133.845 93.165L133.36 93.0455L132.765 95.4627L133.25 95.5822ZM131.861 96.884L133.174 95.7088L132.841 95.3361L131.527 96.5114L131.861 96.884ZM131.024 97.5507L131.85 96.8932L131.538 96.5021L130.713 97.1596L131.024 97.5507ZM128.484 94.9294L130.678 97.5168L131.059 97.1935L128.865 94.6061L128.484 94.9294ZM128.474 94.9178L128.483 94.9285L128.866 94.607L128.857 94.5962L128.474 94.9178ZM124.774 91.9743L128.51 94.9525L128.821 94.5615L125.085 91.5833L124.774 91.9743ZM124.761 91.964L124.771 91.9722L125.088 91.5854L125.078 91.5772L124.761 91.964ZM120.832 89.898L124.803 91.9918L125.036 91.5495L121.066 89.4557L120.832 89.898ZM120.819 89.8906L120.829 89.8961L121.069 89.4576L121.059 89.4522L120.819 89.8906ZM116.104 88.3291L120.86 89.9086L121.018 89.4341L116.262 87.8546L116.104 88.3291ZM114.049 87.4452L116.084 88.3214L116.282 87.8622L114.246 86.9859L114.049 87.4452ZM112.731 86.697L114.024 87.4328L114.271 86.9983L112.978 86.2625L112.731 86.697ZM110.857 85.4372L112.715 86.6872L112.994 86.2723L111.136 85.0223L110.857 85.4372ZM108.253 84.1852L110.888 85.455L111.105 85.0045L108.47 83.7348L108.253 84.1852ZM108.326 83.6432L108.185 83.7828L108.538 84.1371L108.678 83.9975L108.326 83.6432ZM109.662 81.619L108.294 83.6821L108.71 83.9585L110.079 81.8954L109.662 81.619ZM110.309 80.1884L109.643 81.6537L110.098 81.8606L110.764 80.3954L110.309 80.1884ZM110.798 78.9035L110.303 80.203L110.77 80.3808L111.265 79.0813L110.798 78.9035ZM111.463 78.4521L110.906 78.7762L111.157 79.2085L111.715 78.8843L111.463 78.4521ZM112.261 76.301L111.357 78.5759L111.821 78.7605L112.725 76.4857L112.261 76.301ZM114.448 70.3978L112.259 76.3065L112.727 76.4802L114.917 70.5715L114.448 70.3978ZM116.486 70.7629L114.754 70.2451L114.611 70.7241L116.343 71.242L116.486 70.7629ZM118.448 71.5063L116.503 70.7687L116.326 71.2362L118.27 71.9738L118.448 71.5063ZM122.355 73.4986L118.473 71.5173L118.245 71.9627L122.128 73.944L122.355 73.4986ZM124.748 76.0969L122.426 73.5528L122.057 73.8898L124.379 76.4339L124.748 76.0969ZM128.027 78.437L124.709 76.0621L124.418 76.4687L127.736 78.8436L128.027 78.437ZM130.851 79.7725L127.989 78.4144L127.775 78.8661L130.637 80.2242L130.851 79.7725ZM135.537 80.9482L130.805 79.7559L130.683 80.2408L135.415 81.4331L135.537 80.9482ZM136.356 85.3864L135.724 81.1537L135.229 81.2276L135.862 85.4604L136.356 85.3864ZM135.098 89.0969L136.345 85.5054L135.873 85.3414L134.625 88.9328L135.098 89.0969ZM133.841 93.1788L135.101 89.0884L134.623 88.9413L133.363 93.0317L133.841 93.1788ZM122.529 73.2704L118.594 71.2639L118.367 71.7094L122.302 73.7158L122.529 73.2704ZM124.936 75.884L122.6 73.3246L122.231 73.6616L124.567 76.2211L124.936 75.884ZM128.18 78.1961L124.897 75.8491L124.606 76.2559L127.889 78.6028L128.18 78.1961ZM130.958 79.5073L128.142 78.1735L127.928 78.6254L130.744 79.9592L130.958 79.5073ZM135.491 80.6426L130.912 79.4908L130.79 79.9757L135.369 81.1275L135.491 80.6426ZM134.889 79.0432L135.183 80.9236L135.677 80.8464L135.383 78.966L134.889 79.0432ZM133.772 72.1326L134.89 79.0445L135.383 78.9647L134.266 72.0528L133.772 72.1326ZM133.398 69.4334L133.771 72.127L134.267 72.0584L133.893 69.3648L133.398 69.4334ZM133.219 68.4421L133.4 69.4435L133.892 69.3547L133.711 68.3532L133.219 68.4421ZM130.363 61.2956L133.233 68.4903L133.697 68.305L130.827 61.1103L130.363 61.2956ZM129.547 60.6002L130.428 61.3892L130.762 61.0168L129.881 60.2278L129.547 60.6002ZM121.81 58.8565L129.658 60.6577L129.77 60.1704L121.922 58.3692L121.81 58.8565ZM119.307 58.0122L121.786 58.8497L121.946 58.376L119.467 57.5385L119.307 58.0122ZM116.548 66.1788L119.621 57.862L119.152 57.6887L116.079 66.0055L116.548 66.1788ZM115.848 67.9924L116.547 66.1822L116.08 66.0021L115.381 67.8123L115.848 67.9924ZM115.015 70.306L115.85 67.987L115.379 67.8177L114.545 70.1367L115.015 70.306ZM116.583 70.4996L114.852 69.9818L114.709 70.4608L116.44 70.9787L116.583 70.4996ZM118.569 71.2529L116.6 70.5054L116.423 70.9729L118.392 71.7204L118.569 71.2529ZM110.512 80.2715L111.038 78.8882L110.571 78.7104L110.045 80.0937L110.512 80.2715ZM109.859 81.7149L110.506 80.2857L110.051 80.0794L109.403 81.5086L109.859 81.7149ZM108.502 83.7697L109.84 81.7498L109.423 81.4738L108.086 83.4938L108.502 83.7697ZM108.284 83.9944L108.47 83.8089L108.118 83.4546L107.931 83.6402L108.284 83.9944ZM106.078 82.7104L107.965 84.0225L108.25 83.612L106.363 82.2999L106.078 82.7104ZM103.844 79.7032L106.019 82.6535L106.421 82.3568L104.246 79.4065L103.844 79.7032ZM103.834 79.6906L103.845 79.705L104.245 79.4047L104.234 79.3903L103.834 79.6906ZM99.9514 76.5686L103.877 79.7351L104.191 79.3459L100.265 76.1794L99.9514 76.5686ZM99.9299 76.5515L99.9525 76.5696L100.264 76.1785L100.241 76.1605L99.9299 76.5515ZM95.9442 75.4767L100.019 76.5971L100.152 76.115L96.0767 74.9946L95.9442 75.4767ZM92.7735 74.362L95.9275 75.4715L96.0934 74.9998L92.9394 73.8903L92.7735 74.362ZM81.0036 68.6668L92.7475 74.3512L92.9654 73.9011L81.2215 68.2167L81.0036 68.6668ZM81.2444 67.6225L80.8892 68.3295L81.3359 68.554L81.6912 67.8471L81.2444 67.6225ZM83.7087 62.8984L81.2462 67.6192L81.6895 67.8504L84.152 63.1296L83.7087 62.8984ZM84.0514 62.4523L83.7332 62.8602L84.1274 63.1677L84.4456 62.7598L84.0514 62.4523ZM86.0612 58.2084L84.0227 62.4987L84.4743 62.7133L86.5129 58.423L86.0612 58.2084ZM85.8734 57.5677L86.0424 58.3674L86.5316 58.264L86.3626 57.4643L85.8734 57.5677ZM86.7583 57.0795L86.0514 57.275L86.1846 57.7569L86.8916 57.5615L86.7583 57.0795ZM89.0638 56.5368L86.7677 57.0772L86.8822 57.5639L89.1784 57.0235L89.0638 56.5368ZM91.879 59.3578L89.3035 56.6092L88.9387 56.9511L91.5142 59.6997L91.879 59.3578ZM95.7297 60.7449L91.7828 59.2941L91.6103 59.7634L95.5572 61.2142L95.7297 60.7449ZM98.1896 61.5767L95.7235 60.7427L95.5633 61.2164L98.0295 62.0503L98.1896 61.5767ZM104.34 63.7582L98.1931 61.5779L98.026 62.0491L104.173 64.2294L104.34 63.7582ZM110.627 65.9853L104.34 63.7582L104.173 64.2295L110.46 66.4566L110.627 65.9853ZM115.387 67.7013L110.628 65.9857L110.458 66.4561L115.217 68.1717L115.387 67.7013ZM114.7 70.3482L115.537 68.0212L115.067 67.8519L114.229 70.179L114.7 70.3482ZM112.465 76.379L114.699 70.3505L114.23 70.1767L111.996 76.2052L112.465 76.379ZM111.596 78.5665L112.463 76.3844L111.999 76.1998L111.132 78.3819L111.596 78.5665ZM110.93 79.0154L111.49 78.6903L111.238 78.258L110.679 78.5831L110.93 79.0154Z" fill="white"/>
<path d="M114.318 38.0245L114.268 38.4208L113.665 41.1477L113.478 43.8062L112.955 44.9887L112.545 46.0802L112.083 49.5816V55.1778L119.483 57.5103L121.949 58.3433L129.848 60.1589L130.266 60.5326L132.939 59.0016L134.191 58.4469L136.468 57.1969L137.498 56.6835L140.524 55.2922L145.036 52.7705L145.024 52.7534L137.512 42.6075L137.465 34.7464L137.348 34.433L136.281 33.5549L135.709 32.3202L135.606 32.1158L131.267 31.7556L125.134 31.6178H125.086L121.372 32.0321L114.004 32.8543L114.318 38.0245Z" fill="#CECECE" stroke="white" stroke-width="0.5" stroke-linejoin="round"/>
<path d="M59.0332 65.8657L59.0839 66.8708V67.6156L78.02 67.0158L80.8612 68.3189L81.2228 67.6048L83.6979 62.8596L84.0225 62.4445L85.9987 58.2784L85.7952 57.3148L86.673 57.0716L87.5924 51.3476L88.0037 50.2083L87.4677 46.6664L87.7795 46.7177L88.1881 33.4792L76.0745 37.0914L67.6574 38.5738L67.2831 38.7539L60.8096 40.8414L58.3435 41.6763L55.231 42.5886L51.6575 49.9832L54.3776 54.7166L56.0591 58.9962L57.2596 64.8832L59.0332 65.8657Z" fill="#CECECE" stroke="white" stroke-width="0.5" stroke-linejoin="round"/>
<path d="M80.6082 93.5838L83.7397 91.1171L87.7552 88.5712L87.6522 88.1083L89.5117 87.767L90.5847 86.3864L91.8322 83.3028L92.2147 81.9816L95.3787 76.2288L95.771 75.4461L92.739 74.379L80.8649 68.6297L77.964 67.2996L58.9493 67.9021L57.0635 68.0822L54.2485 68.9557L51.616 70.3363L51.0302 70.7866L45.7708 76.7097L46.2363 77.1735L58.245 88.9071L58.3852 88.7675L61.6504 91.9726L65.5909 95.7614L69.3172 94.3691L72.8979 97.8444L76.062 96.4035L79.3543 94.5555L80.6082 93.5838Z" fill="#CECECE" stroke="white" stroke-width="0.5" stroke-linejoin="round"/>
<path d="M103.801 95.5488L105.851 90.3498L105.896 90.2174L107.763 84.3105L107.937 84.0403L106.022 82.7093L106.009 82.6904L103.83 79.7356L99.9545 76.6106L96.042 75.5353L95.6279 76.3611L92.4639 82.105L92.0906 83.4027L90.825 86.5295L89.6624 88.0254L87.9828 88.3334L88.066 88.7053L83.8913 91.3521L80.777 93.8062L79.5015 94.7968L76.3809 96.5476L79.1832 98.6396L85.4598 101.882L98.9944 108.692V107.577L99.8469 106.303L103.801 95.5488Z" fill="#CECECE" stroke="white" stroke-width="0.5" stroke-linejoin="round"/>
<path d="M94.4693 32.8128L90.9229 31.4539L89.1094 33.0794L88.7316 33.2676V33.2775L88.6213 33.3216L88.4748 33.3946V33.382H88.4694L88.0481 47.0437L87.8004 47.0023L88.2895 50.2345L87.8628 51.4151L86.9661 56.9987L89.1356 56.4899L99.4268 53.8431L99.6139 53.7962L103.049 52.9065L106.53 53.7972L111.803 55.1039V49.5572L112.271 46.0153L112.696 44.8868L113.201 43.7422L113.389 41.1017L113.993 38.3712L114.037 38.019L113.722 32.9002L110.903 33.427L102.538 35.8009L100.455 35.329L99.8706 35.1813L94.4693 32.8128Z" fill="#CECECE" stroke="white" stroke-width="0.5" stroke-linejoin="round"/>
<path d="M113.228 113.23L116.302 113.734L116.499 113.655L127.856 108.252L131.606 100.501L132.216 99.3307L130.742 97.6394L128.468 94.9575L124.761 92.0045L120.824 89.9287L116.074 88.3509L114.011 87.4629L112.698 86.7154L110.844 85.4681L108.173 84.1803L108.015 84.4316L106.157 90.3069L106.11 90.4483L104.059 95.6518L100.096 106.428L99.272 107.659V108.821L102.676 110.132L105.326 111.059L110.996 112.77L113.228 113.23Z" fill="#CECECE" stroke="white" stroke-width="0.5" stroke-linejoin="round"/>
<path d="M184.549 118.595L185.676 117.472L187.204 110.644L189.784 96.8745L179.878 95.5462L170.538 94.2935L166.957 93.8297L154.041 90.9028L153.673 90.7227L152.438 90.5426L148.099 90.1715H148.085L146.549 89.7077L141.603 87.849L139.014 86.7232L137.51 85.3624L136.355 85.5678L135.125 89.1097L133.869 93.1876L133.255 95.6804L131.872 96.915L131.049 97.5715L132.491 99.225L141.531 109.344L141.535 109.35L145.211 114.588L160.443 132.799L161.278 132.134L165.016 129.713L165.03 129.708L170.759 127.527L173.219 126.417L174.372 125.912L184.549 118.595Z" fill="#CECECE" stroke="white" stroke-width="0.5" stroke-linejoin="round"/>
<path d="M147.713 55.9234L145.453 52.9515L140.892 55.4957L137.865 56.888L136.844 57.3968L134.556 58.6522L133.305 59.206L130.73 60.6839L131.078 60.9946L131.089 61.0252L133.982 68.2757L134.171 69.3096L134.544 72.006L135.662 78.9161L136.023 81.2125L136.624 85.2255L137.854 85.0066L139.424 86.4296L141.964 87.5337L146.895 89.3871L148.409 89.8437L152.726 90.2138L154.014 90.4038L154.391 90.592L167.268 93.5099L170.71 93.9557L170.874 92.7255L169.952 88.591L165.41 79.5852L162.933 77.666L159.912 76.3026L159.893 76.2449L157.338 68.7026L152.771 62.3887L152.539 61.4674L147.713 55.9234Z" fill="#CECECE" stroke="white" stroke-width="0.5" stroke-linejoin="round"/>
</svg>
