<svg width="190" height="151" viewBox="0 0 190 151" fill="none" xmlns="http://www.w3.org/2000/svg">
<path d="M189.721 92.2657L189.116 87.6322L187.346 71.1157L186.832 67.1108V64.745L186.923 58.4329L186.832 55.9346L186.554 52.1432L185.255 45.2088L183.419 41.8181L178.835 43.9885L174.023 46.1301L169.74 47.064H168.674L165.652 47.2954L165.179 47.3423H165.168L160.669 47.0649L159.093 47.3792L157.968 48.359L156.186 48.4995L155.011 49.2199L153.778 50.1205L151.428 50.542L148.275 51.5119L144.909 52.879L147.128 55.7969L151.988 61.3804L152.222 62.3143L156.782 68.6184L159.331 76.1436L162.271 77.471L162.284 77.4809L164.824 79.4487L164.839 79.4766L169.41 88.5391V88.5562L170.347 92.7556L170.176 94.0344L189.274 96.5957L189.719 93.495L189.721 92.2657Z" fill="#CECECE" stroke="white" stroke-width="0.5" stroke-linejoin="round"/>
<path d="M106.286 142.498L104.97 140.9L104.122 139.152L103.652 136.998L104.025 132.075L103.886 131.051L103.84 128.093L103.56 126.51L103.374 122.891V121.476L103.98 116.558L104.389 111.659L101.836 110.767L98.2501 109.385V109.376L84.6901 102.553L82.3632 105.473L81.4782 105.055L80.802 105.898L75.3509 112.395L71.1147 117.636L57.8259 134.229L72.6334 139.222L89.8176 144.975L93.5809 146.225L92.9337 148.207L94.8701 148.635L104.995 149.518L106.203 150.099L107.278 144.114L106.286 142.498Z" fill="#CECECE"/>
<path d="M129.101 149.554L133.266 147.662L149.014 139.702L149.805 138.451L149.837 138.434L158.77 133.614L159.667 132.964L144.437 114.748L140.759 109.508L131.865 99.551L131.306 100.625L127.514 108.459L127.469 108.481L116.059 113.909L115.782 114.02L112.623 113.503L110.369 113.034L104.855 111.367L104.45 116.206L103.845 121.121V122.504L104.031 126.106L104.311 127.698L104.357 130.659L104.498 131.685V131.7L104.127 136.597L104.585 138.695L105.408 140.382L106.713 141.963L107.765 143.674L106.656 149.842L107.418 150.238L107.375 149.478L110.143 149.865L116.674 145.137L120.627 149.685L129.101 149.554Z" fill="#232873" stroke="white" stroke-width="0.5" stroke-linejoin="round"/>
<path d="M75.3256 111.839L80.7758 105.342L81.5894 104.33L82.4735 104.747L84.6278 102.046L78.4806 98.8701L75.557 96.6862L72.2854 98.1758L68.6948 94.6914L64.9694 96.0828L60.9014 92.1707L57.8278 89.1583L57.6886 89.297L45.4846 77.3697L45.0326 76.9194L30.4221 93.6386L14.5117 118.306L15.8487 118.192L19.6934 117.291L22.3078 120.289L19.3246 122.933L19.7766 128.997L25.3679 128.952L28.389 126.263L32.5049 121.173L34.3292 122.106L37.4534 123.824L47.8784 130.361L57.7319 133.758L71.0831 117.086L75.3256 111.839Z" fill="#CECECE" stroke="white" stroke-width="0.5" stroke-linejoin="round"/>
<path d="M137.054 1.54935L137.416 10.5074L138.953 12.6111L137.393 14.1655L136.898 15.0661L134.853 22.3806L134.432 24.1952L133.309 27.6436L133.301 27.6571L130.951 31.5016L135.228 31.8619L135.403 32.2104L135.95 33.3919L137.026 34.2772L137.187 34.7068V34.732L137.233 42.5274L144.737 52.6571L148.188 51.2495L151.371 50.2714L153.668 49.8599L154.862 48.9908L156.102 48.2307L157.859 48.0929L158.97 47.1248L160.654 46.7889L165.174 47.0681L165.626 47.0231L168.667 46.7907H169.723L173.932 45.8694L178.716 43.7414L183.286 41.58L181.797 38.7441L176.292 37.0384L176.275 37.0276L172.574 34.596L171.102 32.504L170.068 29.7428L170.115 25.1327L169.65 21.3377L168.489 13.935L167.424 11.3521L165.808 7.7174L160.638 3.11906L153.425 1L137.054 1.54935Z" fill="#CECECE" stroke="white" stroke-width="0.5" stroke-linejoin="round"/>
<path d="M1.2917 110.126L5.34072 117.048L12.6676 118.379L14.1629 118.335L30.1953 93.4747L30.2016 93.4675L44.9187 76.6249L50.284 70.5829L50.9168 70.0984L53.5953 68.6971L56.4637 67.81L58.2473 67.6371V66.8851L58.2048 66.0386L56.4465 65.0705L55.2252 59.0808L53.5601 54.8309L50.839 50.0984L37.5114 43.6215L33.6106 41.6555L31.1436 42.747L30.8299 42.8515L28.9414 42.4912L0.445557 98.39L2.513 98.4801L0.876764 103.131L1.2917 110.126Z" fill="#CECECE" stroke="white" stroke-width="0.5" stroke-linejoin="round"/>
<path d="M47.2222 22.9344L40.2298 28.0082L34.8202 34.4609L33.7698 41.4214L37.638 43.3712L50.8762 49.804L54.475 42.358L57.7014 41.4124L60.1639 40.5794L66.6293 38.4946L67.0108 38.3045L75.4523 36.8177L87.7341 33.1568L87.8425 33.1136L85.8194 26.2422L85.8266 26.208L88.8541 12.1041L90.9107 2.99744L83.4075 3.17755L80.0112 3.49726L77.9826 5.2885L77.9663 5.29661L67.5857 10.4443L65.0337 11.9699L57.3497 17.4409L50.9928 22.2842L47.2222 22.9344Z" fill="#CECECE" stroke="white" stroke-width="0.5" stroke-linejoin="round"/>
<path d="M89.1233 12.1627L86.104 26.2306L88.0928 32.9966L88.392 32.8471L90.3049 31.136L94.0176 32.5589L99.4154 34.923L99.9632 35.0589L101.975 35.5146L110.291 33.1551L113.427 32.5698V32.5806L124.514 31.3432H124.523L130.637 31.481L133.055 27.5274L134.166 24.1151L134.584 22.314L136.639 14.9617L137.168 14.0026L138.588 12.5878L137.142 10.6065L136.773 1.56201L124.105 1.92945L116.141 2.20772L107.198 2.44007L91.1971 2.99303L89.1233 12.1627Z" fill="#CECECE" stroke="white" stroke-width="0.5" stroke-linejoin="round"/>
<path fill-rule="evenodd" clip-rule="evenodd" d="M98.94 54.1163L102.493 53.1968L105.904 54.0694L111.344 55.4122L118.562 57.688L115.493 65.9931L114.844 67.6754L110.082 65.9589L103.795 63.7317L97.6473 61.5505L95.183 60.7166L91.3022 59.2901L88.8776 56.7018L98.94 54.1163ZM133.048 93.1053L132.453 95.5224L131.14 96.6977L130.314 97.3552L128.12 94.7678L128.111 94.757L124.375 91.7788L124.365 91.7706L120.395 89.6768L120.385 89.6714L115.629 88.0918L113.593 87.2155L112.3 86.4797L110.442 85.2297L107.807 83.96L107.948 83.8203L109.316 81.7572L109.982 80.2919L110.477 78.9924L111.035 78.6682L111.939 76.3933L114.128 70.4846L115.86 71.0025L117.805 71.74L121.687 73.7213L124.009 76.2654L127.327 78.6403L130.19 79.9983L134.922 81.1907L135.555 85.4234L134.307 89.0149L133.048 93.1053ZM117.926 71.4866L121.861 73.4931L124.197 76.0525L127.48 78.3994L130.297 79.7332L134.876 80.885L134.582 79.0046L133.465 72.0927L133.091 69.3991L132.91 68.3976L130.04 61.203L129.16 60.414L121.311 58.6129L118.832 57.7753L115.759 66.0921L115.06 67.9023L114.226 70.2213L115.957 70.7392L117.926 71.4866ZM110.25 78.7993L109.724 80.1826L109.077 81.6118L107.74 83.6318L107.553 83.8173L105.666 82.5052L103.491 79.5549L103.48 79.5405L99.5539 76.374L99.5312 76.356L95.456 75.2357L92.302 74.1262L80.5581 68.4417L80.9134 67.7348L83.3759 63.014L83.6941 62.606L85.7326 58.3157L85.5635 57.516L86.2705 57.3205L88.5666 56.7802L91.1421 59.5287L95.089 60.9795L97.5551 61.8135L103.702 63.9938L109.989 66.2209L114.747 67.9365L113.91 70.2636L111.676 76.2921L110.81 78.4742L110.25 78.7993Z" fill="#CECECE"/>
<path d="M102.493 53.1968L102.555 52.9546C102.514 52.9441 102.471 52.9442 102.43 52.9548L102.493 53.1968ZM98.94 54.1163L99.0023 54.3584L99.0027 54.3583L98.94 54.1163ZM105.904 54.0694L105.842 54.3116L105.844 54.3121L105.904 54.0694ZM111.344 55.4122L111.419 55.1738C111.414 55.1722 111.409 55.1708 111.404 55.1695L111.344 55.4122ZM118.562 57.688L118.797 57.7746C118.82 57.7104 118.817 57.6394 118.787 57.5779C118.757 57.5165 118.703 57.4701 118.637 57.4495L118.562 57.688ZM115.493 65.9931L115.726 66.0831L115.728 66.0798L115.493 65.9931ZM114.844 67.6754L114.759 67.9106C114.887 67.9566 115.028 67.8921 115.077 67.7654L114.844 67.6754ZM110.082 65.9589L110.167 65.7237L110.165 65.7232L110.082 65.9589ZM103.795 63.7317L103.711 63.9673L103.711 63.9674L103.795 63.7317ZM97.6473 61.5505L97.7309 61.3149L97.7275 61.3137L97.6473 61.5505ZM95.183 60.7166L95.0967 60.9514L95.1029 60.9534L95.183 60.7166ZM91.3022 59.2901L91.1197 59.461C91.1464 59.4894 91.1793 59.5113 91.2159 59.5247L91.3022 59.2901ZM88.8776 56.7018L88.8154 56.4597C88.7299 56.4817 88.6623 56.5472 88.6376 56.632C88.6129 56.7168 88.6348 56.8083 88.6952 56.8728L88.8776 56.7018ZM132.453 95.5224L132.62 95.7088C132.657 95.6752 132.684 95.6311 132.696 95.5822L132.453 95.5224ZM133.048 93.1053L132.809 93.0317C132.808 93.0363 132.806 93.0409 132.805 93.0455L133.048 93.1053ZM131.14 96.6977L131.295 96.8932C131.299 96.8903 131.303 96.8872 131.306 96.884L131.14 96.6977ZM130.314 97.3552L130.124 97.5168C130.211 97.6199 130.364 97.6349 130.47 97.5507L130.314 97.3552ZM128.12 94.7678L127.929 94.9285L127.93 94.9294L128.12 94.7678ZM128.111 94.757L128.303 94.5962C128.292 94.5835 128.28 94.5718 128.267 94.5615L128.111 94.757ZM124.375 91.7788L124.217 91.9722L124.219 91.9743L124.375 91.7788ZM124.365 91.7706L124.523 91.5772C124.511 91.5666 124.497 91.5573 124.482 91.5495L124.365 91.7706ZM120.395 89.6768L120.274 89.8961L120.278 89.898L120.395 89.6768ZM120.385 89.6714L120.505 89.4522C120.492 89.4449 120.478 89.4389 120.463 89.4341L120.385 89.6714ZM115.629 88.0918L115.53 88.3214C115.536 88.3243 115.543 88.3268 115.55 88.3291L115.629 88.0918ZM113.593 87.2155L113.469 87.4328C113.477 87.4374 113.486 87.4415 113.494 87.4452L113.593 87.2155ZM112.3 86.4797L112.161 86.6872C112.166 86.6907 112.171 86.6939 112.177 86.697L112.3 86.4797ZM110.442 85.2297L110.581 85.0223C110.571 85.0157 110.561 85.0097 110.55 85.0045L110.442 85.2297ZM107.807 83.96L107.631 83.7828C107.573 83.8401 107.547 83.9216 107.561 84.0016C107.574 84.0815 107.626 84.15 107.699 84.1852L107.807 83.96ZM107.948 83.8203L108.124 83.9975C108.136 83.9856 108.147 83.9726 108.156 83.9585L107.948 83.8203ZM109.316 81.7572L109.525 81.8954C109.532 81.8843 109.538 81.8727 109.544 81.8606L109.316 81.7572ZM109.982 80.2919L110.21 80.3954C110.212 80.3906 110.214 80.3857 110.216 80.3808L109.982 80.2919ZM110.477 78.9924L110.351 78.7762C110.302 78.805 110.264 78.8499 110.243 78.9035L110.477 78.9924ZM111.035 78.6682L111.16 78.8843C111.209 78.8562 111.246 78.8126 111.267 78.7605L111.035 78.6682ZM111.939 76.3933L112.171 76.4857L112.173 76.4802L111.939 76.3933ZM114.128 70.4846L114.2 70.2451C114.073 70.2073 113.94 70.2741 113.894 70.3978L114.128 70.4846ZM115.86 71.0025L115.949 70.7687C115.943 70.7666 115.938 70.7647 115.932 70.7629L115.86 71.0025ZM117.805 71.74L117.918 71.5173C117.91 71.5132 117.902 71.5095 117.893 71.5063L117.805 71.74ZM121.687 73.7213L121.872 73.5528C121.852 73.5306 121.828 73.5122 121.801 73.4986L121.687 73.7213ZM124.009 76.2654L123.824 76.4339C123.836 76.4469 123.849 76.4585 123.863 76.4687L124.009 76.2654ZM127.327 78.6403L127.182 78.8436C127.194 78.8522 127.207 78.8598 127.22 78.8661L127.327 78.6403ZM130.19 79.9983L130.082 80.2242C130.097 80.2312 130.113 80.2368 130.128 80.2408L130.19 79.9983ZM134.922 81.1907L135.169 81.1537C135.154 81.0539 135.081 80.9729 134.983 80.9482L134.922 81.1907ZM135.555 85.4234L135.791 85.5054C135.804 85.4672 135.808 85.4264 135.802 85.3864L135.555 85.4234ZM134.307 89.0149L134.071 88.9328L134.068 88.9413L134.307 89.0149ZM121.861 73.4931L122.046 73.3246C122.025 73.3024 122.001 73.284 121.974 73.2704L121.861 73.4931ZM117.926 71.4866L118.039 71.2639C118.031 71.2598 118.023 71.2561 118.015 71.2529L117.926 71.4866ZM124.197 76.0525L124.012 76.2211C124.024 76.234 124.037 76.2457 124.051 76.2559L124.197 76.0525ZM127.48 78.3994L127.335 78.6028C127.347 78.6115 127.36 78.619 127.373 78.6254L127.48 78.3994ZM130.297 79.7332L130.19 79.9592C130.205 79.9661 130.22 79.9717 130.236 79.9757L130.297 79.7332ZM134.876 80.885L134.815 81.1275C134.896 81.1479 134.982 81.1263 135.044 81.0697C135.106 81.0132 135.136 80.9293 135.123 80.8464L134.876 80.885ZM134.582 79.0046L134.829 78.966L134.829 78.9647L134.582 79.0046ZM133.465 72.0927L133.217 72.127L133.218 72.1326L133.465 72.0927ZM133.091 69.3991L133.339 69.3648L133.337 69.3547L133.091 69.3991ZM132.91 68.3976L133.156 68.3532C133.153 68.3367 133.149 68.3206 133.143 68.305L132.91 68.3976ZM130.04 61.203L130.273 61.1103C130.258 61.0745 130.236 61.0425 130.207 61.0168L130.04 61.203ZM129.16 60.414L129.327 60.2278C129.295 60.1996 129.257 60.1798 129.216 60.1704L129.16 60.414ZM121.311 58.6129L121.231 58.8497C121.239 58.8524 121.247 58.8547 121.255 58.8565L121.311 58.6129ZM118.832 57.7753L118.912 57.5385C118.784 57.4952 118.645 57.5617 118.598 57.6887L118.832 57.7753ZM115.759 66.0921L115.992 66.1822L115.993 66.1788L115.759 66.0921ZM115.06 67.9023L114.827 67.8123L114.825 67.8177L115.06 67.9023ZM114.226 70.2213L113.99 70.1367C113.967 70.2013 113.972 70.2726 114.003 70.334C114.033 70.3953 114.088 70.4411 114.154 70.4608L114.226 70.2213ZM115.957 70.7392L116.046 70.5054C116.04 70.5033 116.034 70.5014 116.029 70.4996L115.957 70.7392ZM109.724 80.1826L109.952 80.2857C109.954 80.281 109.956 80.2763 109.958 80.2715L109.724 80.1826ZM110.25 78.7993L110.124 78.5831C110.075 78.6119 110.037 78.6569 110.016 78.7104L110.25 78.7993ZM109.077 81.6118L109.285 81.7498C109.292 81.7387 109.299 81.727 109.304 81.7149L109.077 81.6118ZM107.74 83.6318L107.916 83.8089C107.928 83.7969 107.939 83.7838 107.948 83.7697L107.74 83.6318ZM107.553 83.8173L107.411 84.0225C107.51 84.0915 107.644 84.0797 107.73 83.9944L107.553 83.8173ZM105.666 82.5052L105.465 82.6535C105.481 82.6756 105.501 82.6948 105.523 82.7104L105.666 82.5052ZM103.491 79.5549L103.692 79.4065L103.691 79.4047L103.491 79.5549ZM103.48 79.5405L103.68 79.3903C103.667 79.3738 103.653 79.3589 103.637 79.3459L103.48 79.5405ZM99.5539 76.374L99.7108 76.1794L99.7097 76.1785L99.5539 76.374ZM99.5312 76.356L99.687 76.1605C99.6606 76.1394 99.6301 76.1239 99.5975 76.115L99.5312 76.356ZM95.456 75.2357L95.373 75.4715C95.3785 75.4734 95.3841 75.4752 95.3897 75.4767L95.456 75.2357ZM92.302 74.1262L92.1931 74.3512C92.2015 74.3553 92.2102 74.3589 92.219 74.362L92.302 74.1262ZM80.5581 68.4417L80.3347 68.3295C80.3047 68.3893 80.2999 68.4587 80.3214 68.5221C80.3429 68.5855 80.3889 68.6376 80.4492 68.6668L80.5581 68.4417ZM80.9134 67.7348L80.6917 67.6192L80.69 67.6225L80.9134 67.7348ZM83.3759 63.014L83.1787 62.8602C83.1694 62.8722 83.1612 62.8849 83.1542 62.8984L83.3759 63.014ZM83.6941 62.606L83.8912 62.7598C83.9024 62.7454 83.912 62.7298 83.9199 62.7133L83.6941 62.606ZM85.7326 58.3157L85.9584 58.423C85.9819 58.3735 85.9885 58.3176 85.9772 58.264L85.7326 58.3157ZM85.5635 57.516L85.4969 57.275C85.3696 57.3102 85.2916 57.4384 85.3189 57.5677L85.5635 57.516ZM86.2705 57.3205L86.2132 57.077L86.2039 57.0795L86.2705 57.3205ZM88.5666 56.7802L88.7491 56.6092C88.6879 56.544 88.5965 56.5163 88.5094 56.5368L88.5666 56.7802ZM91.1421 59.5287L90.9597 59.6997C90.9864 59.7281 91.0193 59.7499 91.0559 59.7634L91.1421 59.5287ZM95.089 60.9795L95.0027 61.2143L95.0089 61.2164L95.089 60.9795ZM97.5551 61.8135L97.6387 61.5779L97.6352 61.5767L97.5551 61.8135ZM103.702 63.9938L103.619 64.2294L103.619 64.2295L103.702 63.9938ZM109.989 66.2209L110.074 65.9857L110.072 65.9853L109.989 66.2209ZM114.747 67.9365L114.983 68.0212C115.029 67.8913 114.962 67.7481 114.832 67.7013L114.747 67.9365ZM113.91 70.2636L114.145 70.3505L114.146 70.3482L113.91 70.2636ZM111.676 76.2921L111.909 76.3844L111.911 76.379L111.676 76.2921ZM110.81 78.4742L110.935 78.6903C110.984 78.6622 111.021 78.6185 111.042 78.5665L110.81 78.4742ZM102.43 52.9548L98.8774 53.8742L99.0027 54.3583L102.555 53.4388L102.43 52.9548ZM105.966 53.8272L102.555 52.9546L102.431 53.439L105.842 54.3116L105.966 53.8272ZM111.404 55.1695L105.963 53.8267L105.844 54.3121L111.284 55.6549L111.404 55.1695ZM118.637 57.4495L111.419 55.1738L111.269 55.6506L118.487 57.9264L118.637 57.4495ZM115.728 66.0798L118.797 57.7746L118.328 57.6013L115.259 65.9064L115.728 66.0798ZM115.077 67.7654L115.726 66.0831L115.26 65.9031L114.611 67.5854L115.077 67.7654ZM109.997 66.1941L114.759 67.9106L114.929 67.4402L110.167 65.7237L109.997 66.1941ZM103.711 63.9674L109.998 66.1945L110.165 65.7232L103.878 63.4961L103.711 63.9674ZM97.5637 61.7861L103.711 63.9673L103.878 63.4961L97.7309 61.3149L97.5637 61.7861ZM95.1029 60.9534L97.5672 61.7873L97.7275 61.3137L95.2631 60.4798L95.1029 60.9534ZM91.2159 59.5247L95.0968 60.9513L95.2693 60.482L91.3884 59.0554L91.2159 59.5247ZM88.6952 56.8728L91.1197 59.461L91.4846 59.1192L89.0601 56.5309L88.6952 56.8728ZM98.8778 53.8741L88.8154 56.4597L88.9398 56.944L99.0023 54.3584L98.8778 53.8741ZM132.696 95.5822L133.291 93.165L132.805 93.0455L132.21 95.4627L132.696 95.5822ZM131.306 96.884L132.62 95.7088L132.286 95.3361L130.973 96.5114L131.306 96.884ZM130.47 97.5507L131.295 96.8932L130.984 96.5021L130.158 97.1596L130.47 97.5507ZM127.93 94.9294L130.124 97.5168L130.505 97.1935L128.311 94.6061L127.93 94.9294ZM127.92 94.9178L127.929 94.9285L128.312 94.607L128.303 94.5962L127.92 94.9178ZM124.219 91.9743L127.955 94.9525L128.267 94.5615L124.531 91.5833L124.219 91.9743ZM124.207 91.964L124.217 91.9722L124.533 91.5854L124.523 91.5772L124.207 91.964ZM120.278 89.898L124.248 91.9918L124.482 91.5495L120.511 89.4557L120.278 89.898ZM120.265 89.8906L120.274 89.8961L120.515 89.4576L120.505 89.4522L120.265 89.8906ZM115.55 88.3291L120.306 89.9086L120.463 89.4341L115.708 87.8546L115.55 88.3291ZM113.494 87.4452L115.53 88.3214L115.728 87.8622L113.692 86.9859L113.494 87.4452ZM112.177 86.697L113.469 87.4328L113.717 86.9983L112.424 86.2625L112.177 86.697ZM110.302 85.4372L112.161 86.6872L112.44 86.2723L110.581 85.0223L110.302 85.4372ZM107.699 84.1852L110.333 85.455L110.55 85.0045L107.916 83.7348L107.699 84.1852ZM107.771 83.6432L107.631 83.7828L107.984 84.1371L108.124 83.9975L107.771 83.6432ZM109.108 81.619L107.739 83.6821L108.156 83.9585L109.525 81.8954L109.108 81.619ZM109.755 80.1884L109.089 81.6537L109.544 81.8606L110.21 80.3954L109.755 80.1884ZM110.243 78.9035L109.749 80.203L110.216 80.3808L110.711 79.0813L110.243 78.9035ZM110.909 78.4521L110.351 78.7762L110.603 79.2085L111.16 78.8843L110.909 78.4521ZM111.706 76.301L110.802 78.5759L111.267 78.7605L112.171 76.4857L111.706 76.301ZM113.894 70.3978L111.704 76.3065L112.173 76.4802L114.363 70.5715L113.894 70.3978ZM115.932 70.7629L114.2 70.2451L114.057 70.7241L115.789 71.242L115.932 70.7629ZM117.893 71.5063L115.949 70.7687L115.771 71.2362L117.716 71.9738L117.893 71.5063ZM121.801 73.4986L117.918 71.5173L117.691 71.9627L121.574 73.944L121.801 73.4986ZM124.194 76.0969L121.872 73.5528L121.503 73.8898L123.824 76.4339L124.194 76.0969ZM127.473 78.437L124.154 76.0621L123.863 76.4687L127.182 78.8436L127.473 78.437ZM130.297 79.7725L127.435 78.4144L127.22 78.8661L130.082 80.2242L130.297 79.7725ZM134.983 80.9482L130.251 79.7559L130.128 80.2408L134.861 81.4331L134.983 80.9482ZM135.802 85.3864L135.169 81.1537L134.675 81.2276L135.307 85.4604L135.802 85.3864ZM134.543 89.0969L135.791 85.5054L135.319 85.3414L134.071 88.9328L134.543 89.0969ZM133.287 93.1788L134.546 89.0884L134.068 88.9413L132.809 93.0317L133.287 93.1788ZM121.974 73.2704L118.039 71.2639L117.812 71.7094L121.747 73.7158L121.974 73.2704ZM124.382 75.884L122.046 73.3246L121.676 73.6616L124.012 76.2211L124.382 75.884ZM127.626 78.1961L124.342 75.8491L124.051 76.2559L127.335 78.6028L127.626 78.1961ZM130.404 79.5073L127.587 78.1735L127.373 78.6254L130.19 79.9592L130.404 79.5073ZM134.937 80.6426L130.358 79.4908L130.236 79.9757L134.815 81.1275L134.937 80.6426ZM134.335 79.0432L134.629 80.9236L135.123 80.8464L134.829 78.966L134.335 79.0432ZM133.218 72.1326L134.335 79.0445L134.829 78.9647L133.711 72.0528L133.218 72.1326ZM132.844 69.4334L133.217 72.127L133.712 72.0584L133.339 69.3648L132.844 69.4334ZM132.664 68.4421L132.845 69.4435L133.337 69.3547L133.156 68.3532L132.664 68.4421ZM129.808 61.2956L132.678 68.4903L133.143 68.305L130.273 61.1103L129.808 61.2956ZM128.993 60.6002L129.873 61.3892L130.207 61.0168L129.327 60.2278L128.993 60.6002ZM121.255 58.8565L129.104 60.6577L129.216 60.1704L121.367 58.3692L121.255 58.8565ZM118.752 58.0122L121.231 58.8497L121.391 58.376L118.912 57.5385L118.752 58.0122ZM115.993 66.1788L119.067 57.862L118.598 57.6887L115.524 66.0055L115.993 66.1788ZM115.293 67.9924L115.992 66.1822L115.526 66.0021L114.827 67.8123L115.293 67.9924ZM114.461 70.306L115.295 67.987L114.825 67.8177L113.99 70.1367L114.461 70.306ZM116.029 70.4996L114.297 69.9818L114.154 70.4608L115.885 70.9787L116.029 70.4996ZM118.015 71.2529L116.046 70.5054L115.868 70.9729L117.837 71.7204L118.015 71.2529ZM109.958 80.2715L110.484 78.8882L110.016 78.7104L109.49 80.0937L109.958 80.2715ZM109.304 81.7149L109.952 80.2857L109.496 80.0794L108.849 81.5086L109.304 81.7149ZM107.948 83.7697L109.285 81.7498L108.868 81.4738L107.531 83.4938L107.948 83.7697ZM107.73 83.9944L107.916 83.8089L107.563 83.4546L107.377 83.6402L107.73 83.9944ZM105.523 82.7104L107.411 84.0225L107.696 83.612L105.808 82.2999L105.523 82.7104ZM103.29 79.7032L105.465 82.6535L105.867 82.3568L103.692 79.4065L103.29 79.7032ZM103.28 79.6906L103.291 79.705L103.691 79.4047L103.68 79.3903L103.28 79.6906ZM99.3969 76.5686L103.323 79.7351L103.637 79.3459L99.7108 76.1794L99.3969 76.5686ZM99.3754 76.5515L99.3981 76.5696L99.7097 76.1785L99.687 76.1605L99.3754 76.5515ZM95.3897 75.4767L99.465 76.5971L99.5975 76.115L95.5223 74.9946L95.3897 75.4767ZM92.219 74.362L95.373 75.4715L95.539 74.9998L92.385 73.8903L92.219 74.362ZM80.4492 68.6668L92.1931 74.3512L92.4109 73.9011L80.667 68.2167L80.4492 68.6668ZM80.69 67.6225L80.3347 68.3295L80.7815 68.554L81.1368 67.8471L80.69 67.6225ZM83.1542 62.8984L80.6917 67.6192L81.135 67.8504L83.5975 63.1296L83.1542 62.8984ZM83.4969 62.4523L83.1787 62.8602L83.573 63.1677L83.8912 62.7598L83.4969 62.4523ZM85.5068 58.2084L83.4683 62.4987L83.9199 62.7133L85.9584 58.423L85.5068 58.2084ZM85.3189 57.5677L85.488 58.3674L85.9772 58.264L85.8081 57.4643L85.3189 57.5677ZM86.2039 57.0795L85.4969 57.275L85.6302 57.7569L86.3371 57.5615L86.2039 57.0795ZM88.5094 56.5368L86.2132 57.0772L86.3278 57.5639L88.6239 57.0235L88.5094 56.5368ZM91.3246 59.3578L88.7491 56.6092L88.3842 56.9511L90.9597 59.6997L91.3246 59.3578ZM95.1752 60.7449L91.2284 59.2941L91.0559 59.7634L95.0027 61.2142L95.1752 60.7449ZM97.6352 61.5767L95.1691 60.7427L95.0089 61.2164L97.475 62.0503L97.6352 61.5767ZM103.786 63.7582L97.6387 61.5779L97.4715 62.0491L103.619 64.2294L103.786 63.7582ZM110.072 65.9853L103.786 63.7582L103.619 64.2295L109.905 66.4566L110.072 65.9853ZM114.832 67.7013L110.074 65.9857L109.904 66.4561L114.663 68.1717L114.832 67.7013ZM114.146 70.3482L114.983 68.0212L114.512 67.8519L113.675 70.179L114.146 70.3482ZM111.911 76.379L114.145 70.3505L113.676 70.1767L111.442 76.2052L111.911 76.379ZM111.042 78.5665L111.909 76.3844L111.444 76.1998L110.577 78.3819L111.042 78.5665ZM110.376 79.0154L110.935 78.6903L110.684 78.258L110.124 78.5831L110.376 79.0154Z" fill="white"/>
<path d="M113.764 38.0245L113.713 38.4208L113.11 41.1477L112.923 43.8062L112.401 44.9887L111.99 46.0802L111.528 49.5816V55.1778L118.928 57.5103L121.395 58.3433L129.294 60.1589L129.711 60.5326L132.385 59.0016L133.637 58.4469L135.914 57.1969L136.943 56.6835L139.969 55.2922L144.482 52.7705L144.469 52.7534L136.958 42.6075L136.911 34.7464L136.793 34.433L135.727 33.5549L135.154 32.3202L135.051 32.1158L130.712 31.7556L124.579 31.6178H124.531L120.818 32.0321L113.449 32.8543L113.764 38.0245Z" fill="#CECECE" stroke="white" stroke-width="0.5" stroke-linejoin="round"/>
<path d="M58.4788 65.8657L58.5294 66.8708V67.6156L77.4655 67.0158L80.3067 68.3189L80.6684 67.6048L83.1435 62.8596L83.468 62.4445L85.4442 58.2784L85.2408 57.3148L86.1186 57.0716L87.038 51.3476L87.4492 50.2083L86.9132 46.6664L87.2251 46.7177L87.6337 33.4792L75.5201 37.0914L67.103 38.5738L66.7287 38.7539L60.2551 40.8414L57.789 41.6763L54.6765 42.5886L51.103 49.9832L53.8232 54.7166L55.5046 58.9962L56.7051 64.8832L58.4788 65.8657Z" fill="#CECECE" stroke="white" stroke-width="0.5" stroke-linejoin="round"/>
<path d="M80.0538 93.5838L83.1852 91.1171L87.2008 88.5712L87.0977 88.1083L88.9573 87.767L90.0303 86.3864L91.2778 83.3028L91.6602 81.9816L94.8242 76.2288L95.2165 75.4461L92.1846 74.379L80.3105 68.6297L77.4095 67.2996L58.3948 67.9021L56.5091 68.0822L53.694 68.9557L51.0616 70.3363L50.4758 70.7866L45.2163 76.7097L45.6819 77.1735L57.6906 88.9071L57.8307 88.7675L61.096 91.9726L65.0365 95.7614L68.7628 94.3691L72.3435 97.8444L75.5075 96.4035L78.7999 94.5555L80.0538 93.5838Z" fill="#CECECE" stroke="white" stroke-width="0.5" stroke-linejoin="round"/>
<path d="M103.247 95.5487L105.297 90.3496L105.341 90.2173L107.209 84.3104L107.382 84.0402L105.468 82.7092L105.454 82.6902L103.275 79.7354L99.4 76.6105L95.4875 75.5352L95.0735 76.361L91.9095 82.1049L91.5361 83.4026L90.2706 86.5294L89.108 88.0253L87.4283 88.3332L87.5115 88.7052L83.3368 91.352L80.2225 93.8061L78.947 94.7967L75.8264 96.5474L78.6288 98.6395L84.9053 101.882L98.44 108.692V107.577L99.2925 106.302L103.247 95.5487Z" fill="#CECECE" stroke="white" stroke-width="0.5" stroke-linejoin="round"/>
<path d="M93.9148 32.8128L90.3684 31.4539L88.555 33.0794L88.1771 33.2676V33.2775L88.0668 33.3216L87.9204 33.3946V33.382H87.9149L87.4937 47.0437L87.246 47.0023L87.7351 50.2345L87.3084 51.4151L86.4116 56.9987L88.5812 56.4899L98.8724 53.8431L99.0595 53.7962L102.495 52.9065L105.976 53.7972L111.248 55.1039V49.5572L111.716 46.0153L112.141 44.8868L112.647 43.7422L112.835 41.1017L113.438 38.3712L113.483 38.019L113.167 32.9002L110.349 33.427L101.984 35.8009L99.9002 35.329L99.3162 35.1813L93.9148 32.8128Z" fill="#CECECE" stroke="white" stroke-width="0.5" stroke-linejoin="round"/>
<path d="M112.673 113.23L115.747 113.733L115.944 113.655L127.301 108.252L131.052 100.501L131.662 99.3306L130.188 97.6393L127.913 94.9574L124.207 92.0044L120.27 89.9286L115.519 88.3507L113.456 87.4627L112.144 86.7153L110.29 85.468L107.618 84.1802L107.46 84.4314L105.602 90.3068L105.555 90.4482L103.504 95.6517L99.5411 106.428L98.7175 107.659V108.821L102.121 110.132L104.772 111.059L110.441 112.77L112.673 113.23Z" fill="#CECECE" stroke="white" stroke-width="0.5" stroke-linejoin="round"/>
<path d="M183.995 118.594L185.122 117.472L186.65 110.644L189.23 96.8744L179.324 95.5461L169.984 94.2934L166.403 93.8296L153.487 90.9027L153.119 90.7226L151.884 90.5424L147.545 90.1714H147.531L145.994 89.7076L141.048 87.8488L138.459 86.7231L136.956 85.3623L135.801 85.5677L134.57 89.1096L133.315 93.1874L132.701 95.6802L131.318 96.9149L130.494 97.5714L131.936 99.2249L140.976 109.344L140.981 109.35L144.656 114.588L159.889 132.799L160.724 132.134L164.462 129.713L164.476 129.708L170.204 127.527L172.665 126.417L173.817 125.912L183.995 118.594Z" fill="#CECECE" stroke="white" stroke-width="0.5" stroke-linejoin="round"/>
<path d="M147.159 55.9236L144.899 52.9517L140.338 55.4958L137.31 56.8881L136.29 57.3969L134.002 58.6523L132.751 59.2062L130.176 60.684L130.523 60.9947L130.535 61.0254L133.428 68.2759L133.617 69.3097L133.99 72.0061L135.107 78.9162L135.469 81.2126L136.069 85.2257L137.3 85.0068L138.87 86.4297L141.41 87.5338L146.34 89.3872L147.855 89.8438L152.171 90.2139L153.459 90.404L153.836 90.5922L166.714 93.51L170.155 93.9558L170.32 92.7256L169.398 88.5911L164.855 79.5853L162.378 77.6662L159.357 76.3027L159.338 76.2451L156.783 68.7027L152.216 62.3888L151.985 61.4675L147.159 55.9236Z" fill="#CECECE" stroke="white" stroke-width="0.5" stroke-linejoin="round"/>
</svg>
